<svg height="512pt" viewBox="-35 0 512 512.001" width="512pt" xmlns="http://www.w3.org/2000/svg"><path d="m306.714844 114.597656c-.003906-3.5-1.214844-6.710937-3.226563-9.261718l-28.144531-35.683594-35.34375 72.851562h60c8.28125 0 15-6.226562 15-14.507812 0-5.867188-3.375-10.933594-8.285156-13.398438zm0 0" fill="#ebebeb"/><path d="m173.28125 114.597656c.003906-3.5 1.214844-6.710937 3.230469-9.261718l28.144531-35.683594 35.34375 72.851562s-51.71875 0-60 0-15-6.226562-15-14.507812c0-5.867188 3.375-10.933594 8.28125-13.398438zm0 0" fill="#f7f7f7"/><path d="m239.996094 282.5 60-30v-30l-60-20zm0 0" fill="#353535"/><path d="m239.996094 282.5-60-30v-30l60-20zm0 0" fill="#4f4f4f"/><path d="m209.996094 202.5h60v80h-60zm0 0" fill="#ffcb61"/><path d="m300 252.5h-30l15 75h30v-35.335938c0-15.210937-5.671875-29.089843-15-39.664062zm0 0" fill="#cf301b"/><path d="m270 252.5h-90c-9.328125 10.574219-15 24.453125-15 39.664062v35.335938h120v-35.335938c0-15.210937-5.671875-29.089843-15-39.664062zm0 0" fill="#ff4128"/><path d="m280 172.5h-30l20 50h30v-30c0-11.046875-8.953125-20-20-20zm0 0" fill="#cf301b"/><path d="m250 172.5h-50c-11.046875 0-20 8.953125-20 20v30h90v-30c0-11.046875-8.953125-20-20-20zm0 0" fill="#ff4128"/><path d="m210 454.5v35l-30 10v-60zm0 0" fill="#4f4f4f"/><path d="m210 424.5h-30c-8.28125 0-15 6.714844-15 15s6.714844 15 15 15h30zm0 0" fill="#fff"/><path d="m195 327.5.003906 52c0 8.28125 6.714844 15 15 15 8.28125 0 14.996094-6.714844 14.996094-15v-52zm0 0" fill="#ff4128"/><path d="m270 454.5v35l30 10v-60zm0 0" fill="#353535"/><path d="m270 424.5h30c8.28125 0 15 6.714844 15 15s-6.714844 15-15 15h-30zm0 0" fill="#ffd9d4"/><path d="m255 327.5v52c0 8.285156 6.714844 15 15 15 8.28125 0 14.996094-6.714844 14.996094-15l.003906-52zm0 0" fill="#cf301b"/><path d="m315 312.5h-30v30h30c8.285156 0 15-6.71875 15-15 0-8.285156-6.714844-15-15-15zm0 0" fill="#ffd9d4"/><path d="m300 327.5c0-8.285156-6.714844-15-15-15h-120c-8.285156 0-15 6.714844-15 15 0 8.28125 6.714844 15 15 15h120c8.285156 0 15-6.71875 15-15zm0 0" fill="#fff"/><path d="m240 52.5v86l44.960938-31v-10c0-24.851562-20.128907-45-44.960938-45zm0 0" fill="#ffb4a9"/><path d="m240 52.5c-24.832031 0-44.960938 20.148438-44.960938 45v10l59.949219 31v-41c0-24.851562-6.710937-45-14.988281-45zm0 0" fill="#ffd9d4"/><path d="m258.691406 107.5c-1.054687-1.582031-2.3125-3.015625-3.722656-4.277344l-14.96875 80.757813c8.472656 0 15.84375-4.691407 19.675781-11.617188 2.6875 2.546875 6.304688 4.117188 10.296875 4.117188 8.277344 0 14.988282-6.714844 14.988282-15v-53.980469zm0 0" fill="#f7f7f7"/><path d="m254.988281 168.980469-.019531-65.757813c-3.976562-3.554687-9.21875-5.722656-14.96875-5.722656-7.792969 0-14.660156 3.96875-18.695312 10h-26.265626v53.980469c0 8.285156 6.707032 15 14.984376 15 3.992187 0 7.609374-1.570313 10.296874-4.117188 3.832032 6.925781 11.207032 11.617188 19.679688 11.617188 8.277344 0 14.988281-6.714844 14.988281-15zm0 0" fill="#fff"/><path d="m243.53125 7.515625-37.0625-.015625c-8.285156.027344-15 6.746094-15 15.027344 0 8.285156 6.714844 15 15 15l67.0625 30v-30c0-16.5-13.5-30.003906-30-30.011719zm0 0" fill="#ff4128"/><path d="m273.53125 37.527344h-30v30h30c8.285156 0 15-6.714844 15-15s-6.714844-15-15-15zm0 0" fill="#ffd9d4"/><path d="m258.53125 52.527344c0-8.28125-6.714844-15-15-15h-37.066406c-8.28125 0-15 6.71875-15 15 0 8.285156 6.71875 15 15 15h37.066406c8.285156 0 15-6.714844 15-15zm0 0" fill="#fff"/><path d="m191.46875 22.527344c0 8.285156-6.714844 15-15 15s-15-6.714844-15-15c0-8.28125 6.714844-15 15-15s15 6.71875 15 15zm0 0" fill="#fff"/><path d="m405.8125 17.539062c-2.800781-5.925781-8.820312-10.039062-15.8125-10.039062s-13.011719 4.113281-15.8125 10.039062c-9.285156.429688-16.6875 8.070313-16.6875 17.460938 0 9.664062 7.835938 17.5 17.5 17.5l15 30 15-30c9.664062 0 17.5-7.835938 17.5-17.5 0-9.390625-7.402344-17.03125-16.6875-17.460938zm0 0" fill="#cf301b"/><path d="m405 132.5-20.503906-40 20.503906-40h30v80zm0 0" fill="#ffcb61"/><path d="m375 132.5 20.503906-40-20.503906-40h-30.003906v80zm0 0" fill="#ffe2a8"/><path d="m375 52.5h30v80h-30zm0 0" fill="#ff4128"/><path d="m90 314.5c0 14.445312-9.554688 26.566406-22.5 30-12.945312-3.433594-22.5-15.554688-22.5-30zm0 0" fill="#c27749"/><path d="m115.484375 408.480469-47.984375-63.980469v159.996094c33.136719 0 60-26.859375 60-59.996094 0-13.519531-4.472656-25.988281-12.015625-36.019531zm0 0" fill="#a45e43"/><path d="m97.5 444.5c0-13.519531-2.234375-25.988281-6.007812-36.019531l-23.992188-63.980469-47.984375 63.976562c-7.542969 10.03125-12.015625 22.503907-12.015625 36.023438 0 33.136719 26.863281 59.996094 60 59.996094 16.570312 0 30-26.859375 30-59.996094zm0 0" fill="#c27749"/><path d="m435 45h-7.09375c1.339844-3.066406 2.09375-6.445312 2.09375-10 0-11.917969-8.316406-21.917969-19.585938-24.390625-4.632812-6.554687-12.257812-10.609375-20.414062-10.609375-8.160156 0-15.78125 4.054688-20.417969 10.609375-11.269531 2.472656-19.582031 12.472656-19.582031 24.390625 0 3.554688.75 6.933594 2.09375 10h-7.09375c-4.144531 0-7.5 3.359375-7.5 7.5v80c0 4.140625 3.355469 7.5 7.5 7.5h90c4.144531 0 7.5-3.359375 7.5-7.5v-80c0-4.140625-3.355469-7.5-7.5-7.5zm-70-10c0-5.34375 4.1875-9.722656 9.53125-9.96875 2.773438-.125 5.25-1.773438 6.4375-4.285156 1.648438-3.492188 5.191406-5.746094 9.03125-5.746094 3.835938 0 7.382812 2.253906 9.03125 5.746094 1.1875 2.507812 3.660156 4.160156 6.4375 4.285156 5.34375.246094 9.53125 4.625 9.53125 9.96875 0 5.515625-4.488281 10-10 10h-30c-5.515625 0-10-4.484375-10-10zm32.5 25v65h-15v-65zm-45 0h15v65h-15zm75 65h-15v-65h15zm0 0"/><path d="m390 155c-4.144531 0-7.5 3.355469-7.5 7.5 0 12.40625-10.09375 22.5-22.5 22.5h-53.554688c-2.191406-7.6875-7.660156-14.023438-14.804687-17.382812.554687-1.953126.859375-4.011719.859375-6.136719v-11.476563h7.5c12.617188 0 22.5-9.667968 22.5-22.011718 0-7.070313-3.253906-13.558594-8.707031-17.769532-.683594-3.457031-2.175781-6.695312-4.414063-9.53125l-23.277344-29.511718c5.988282-4.046876 9.929688-10.898438 9.929688-18.652344 0-9.984375-6.539062-18.464844-15.558594-21.398438-3.046875-17.636718-18.445312-31.1054685-36.9375-31.113281l-18.535156-.0039062-18.15625.0117187c-.128906 0-.253906.0039063-.375.0039063-5.757812 0-11.015625 2.1796872-15 5.7500002-3.984375-3.574219-9.242188-5.7500002-15-5.7500002-12.40625 0-22.5 10.0937502-22.5 22.5000002 0 12.410156 10.09375 22.5 22.5 22.5 3.472656 0 6.761719-.789063 9.699219-2.199219-1.410157 2.9375-2.199219 6.230469-2.199219 9.699219 0 7.753906 3.941406 14.605468 9.929688 18.652344l-23.277344 29.511718c-2.238282 2.835938-3.730469 6.078125-4.414063 9.53125-5.453125 4.210938-8.707031 10.703125-8.707031 17.773438 0 12.339844 9.882812 22.007812 22.5 22.007812h7.5v11.476563c0 2.125.304688 4.179687.855469 6.128906-7.207031 3.390625-12.714844 9.820313-14.867188 17.613281-50.734375 3.363282-90.988281 45.703125-90.988281 97.277344 0 4.140625 3.359375 7.5 7.5 7.5s7.5-3.359375 7.5-7.5c0-42.960938 33.011719-78.339844 75-82.144531v49.402343c-9.691406 11.988282-15 26.933594-15 42.40625v14.125c-8.730469 3.09375-15 11.429688-15 21.207032 0 12.410156 10.09375 22.5 22.5 22.5h22.5v29.503906c.003906 9.777344 6.273438 18.113281 15.003906 21.207031v16.289063h-22.503906c-12.40625 0-22.5 10.09375-22.5 22.5 0 9.777344 6.269531 18.113281 15 21.210937v33.386719l-9.871094 3.289062c-3.929687 1.308594-6.054687 5.558594-4.746094 9.488282 1.050782 3.140625 3.976563 5.128906 7.113282 5.128906.789062 0 1.585937-.125 2.375-.386719l45-15c3.0625-1.019531 5.128906-3.886719 5.128906-7.113281v-88.804688c3.125-1.105468 5.996094-2.875 8.410156-5.285156 4.25-4.25 6.589844-9.902344 6.589844-15.910156v-29.5h15v29.5c0 9.777344 6.269531 18.109375 14.996094 21.207031l.003906 88.792969c0 3.226562 2.066406 6.09375 5.128906 7.113281l45 15c.785156.261719 1.585938.386719 2.371094.386719 3.140625 0 6.066406-1.988281 7.113281-5.128906 1.3125-3.929688-.8125-8.175782-4.742187-9.488282l-9.871094-3.289062v-33.386719c8.726562-3.09375 15-11.433593 15-21.207031 0-12.40625-10.09375-22.5-22.5-22.5h-22.503906v-16.289062c8.730468-3.097657 15.003906-11.433594 15.003906-21.210938v-29.5h22.5c12.40625 0 22.5-10.09375 22.5-22.5 0-9.777344-6.273438-18.113281-15-21.210938v-14.125c0-15.472656-5.308594-30.417968-15-42.40625v-49.757812h52.5c20.675781 0 37.5-16.824219 37.5-37.5 0-4.144531-3.359375-7.5-7.5-7.5zm-112.5 90v-15h15v15zm-60 0v-15h44.996094v15zm-30 0v-15h15v15zm18.964844-199.972656h67.066406c4.136719 0 7.5 3.367187 7.5 7.5 0 4.136718-3.363281 7.5-7.5 7.5h-67.066406c-4.132813 0-7.5-3.363282-7.5-7.5 0-4.132813 3.367187-7.5 7.5-7.5zm63.523437 30c4.863281 6.472656 7.511719 14.34375 7.511719 22.5v2.472656h-15.152344c-5.648437-6.324219-13.738281-10-22.347656-10s-16.699219 3.675781-22.347656 10h-15.152344v-2.472656c0-8.15625 2.648438-16.027344 7.511719-22.5zm-64.71875 92.265625c-.207031-.210938-.421875-.414063-.652343-.601563-1.308594-1.351562-2.117188-3.1875-2.117188-5.210937v-18.964844c0-.019531 0-27.515625 0-27.515625h18.804688c2.503906 0 4.84375-1.25 6.234374-3.332031 2.796876-4.175781 7.453126-6.667969 12.460938-6.667969s9.664062 2.492188 12.457031 6.667969c1.394531 2.082031 3.730469 3.332031 6.234375 3.332031h18.808594v46.480469c0 2.015625-.804688 3.847656-2.105469 5.195312-.238281.195313-.460937.40625-.675781.625-1.289062 1.046875-2.929688 1.679688-4.71875 1.679688-1.914062 0-3.742188-.734375-5.148438-2.0625-1.683593-1.597657-4.011718-2.324219-6.300781-1.96875-2.292969.351562-4.292969 1.75-5.417969 3.777343-2.644531 4.78125-7.679687 7.753907-13.132812 7.753907s-10.484375-2.972657-13.132812-7.753907c-1.125-2.027343-3.121094-3.425781-5.414063-3.777343-2.289063-.355469-4.621094.371093-6.304687 1.96875-1.40625 1.328125-3.234376 2.0625-5.148438 2.0625-1.792969 0-3.441406-.632813-4.730469-1.6875zm93.945313-52.6875c.003906 2.832031 1.601562 5.421875 4.132812 6.691406 2.5625 1.285156 4.152344 3.851563 4.152344 6.695313 0 4-3.226562 7.011718-7.5 7.011718h-7.5v-31.492187l5.101562 6.46875c.734376.933593 1.613282 2.492187 1.613282 4.625zm-92.75-99.578125h.234375c1.683593-.019532 22.835937-.015625 36.828125-.011719 9.78125.003906 18.117187 6.28125 21.214844 15.011719h-58.277344c-4.132813 0-7.492188-3.359375-7.5-7.492188.007812-4.144531 3.367187-7.507812 7.5-7.507812zm-29.996094 15c-4.136719 0-7.5-3.363282-7.5-7.5 0-4.132813 3.363281-7.5 7.5-7.5 4.132812 0 7.496094 3.363281 7.5 7.496094-.003906 4.144531-3.367188 7.503906-7.5 7.503906zm3.53125 104.976562c-4.277344 0-7.5-3.011718-7.5-7.007812 0-2.84375 1.589844-5.410156 4.148438-6.699219 2.53125-1.269531 4.128906-3.859375 4.132812-6.691406.003906-2.132813.878906-3.691407 1.617188-4.625l5.101562-6.46875v31.496093h-7.5zm17.601562 45.242188c3.558594 2.355468 7.820313 3.734375 12.398438 3.734375 2.929688 0 5.785156-.5625 8.441406-1.640625 5.578125 5.761718 13.328125 9.140625 21.558594 9.140625s15.976562-3.378907 21.558594-9.140625c2.65625 1.078125 5.511718 1.640625 8.441406 1.640625 4.578125 0 8.839844-1.378907 12.398438-3.734375 5.742187 1.125 10.101562 6.199218 10.101562 12.253906v22.5h-22.28125c-.074219-.003906-.144531-.011719-.222656-.011719-.074219 0-.148438.007813-.222656.011719h-82.273438v-22.5c0-6.054688 4.359375-11.128906 10.101562-12.253906zm-14.0625 79.753906h112.921876c7.132812 9.183594 11.039062 20.476562 11.039062 32.164062v12.835938h-135v-12.835938c0-11.6875 3.90625-22.980468 11.039062-32.164062zm-3.539062 172h22.5v15h-22.5c-4.136719 0-7.5-3.367188-7.5-7.5 0-4.136719 3.363281-7.5 7.5-7.5zm7.5 57.09375v-27.09375h15v22.09375zm30-109.59375c0 2-.78125 3.882812-2.195312 5.300781-1.417969 1.417969-3.300782 2.199219-5.304688 2.199219-4.132812 0-7.5-3.367188-7.5-7.5v-29.5h15zm60 104.59375v-22.09375h15v27.09375zm22.5-52.09375c4.132812 0 7.5 3.363281 7.5 7.5 0 4.132812-3.363281 7.5-7.5 7.5h-22.5v-15zm-22.5-52.5c0 4.132812-3.363281 7.5-7.5 7.5s-7.5-3.367188-7.5-7.5v-29.5h15zm37.5-44.5h-150c-4.136719 0-7.5-3.367188-7.5-7.5 0-4.136719 3.363281-7.5 7.5-7.5h150c4.136719 0 7.5 3.363281 7.5 7.5 0 4.132812-3.363281 7.5-7.5 7.5zm0 0"/><path d="m79.179688 347.574219c11.140624-6.796875 18.320312-19.242188 18.320312-33.074219 0-4.144531-3.359375-7.5-7.5-7.5h-45c-4.140625 0-7.5 3.355469-7.5 7.5 0 13.832031 7.179688 26.277344 18.320312 33.074219l-42.300781 56.394531c-8.84375 11.765625-13.519531 25.78125-13.519531 40.53125 0 37.21875 30.28125 67.496094 67.5 67.496094s67.5-30.277344 67.5-67.496094c0-14.75-4.675781-28.761719-13.515625-40.519531zm2.148437-25.574219c-2.171875 6.753906-7.21875 12.21875-13.828125 14.644531-6.609375-2.421875-11.65625-7.890625-13.828125-14.644531zm-13.828125 175c-28.949219 0-52.5-23.554688-52.5-52.5 0-11.472656 3.632812-22.371094 10.515625-31.523438l41.984375-55.976562 41.992188 55.988281c6.875 9.144531 10.507812 20.039063 10.507812 31.511719 0 28.945312-23.550781 52.5-52.5 52.5zm0 0"/></svg>